<svg width="20" height="20" viewBox="0 0 20 20" fill="none" xmlns="http://www.w3.org/2000/svg">
<rect width="20" height="20" rx="10" fill="#D04B00"/>
<path d="M8.38665 5.33318C5.59015 6.40029 5.33406 9.14431 4.52481 10.4249C3.71557 11.7054 1.85123 12.427 2.10732 13.0876C2.36341 13.7482 4.22775 13.0368 5.70283 13.4636C7.17791 13.8904 9.18565 15.7401 11.9822 14.673C12.6601 14.4135 13.2732 14.011 13.779 13.4933C14.2848 12.9757 14.6714 12.3553 14.9118 11.6749C14.9363 11.6196 14.9376 11.557 14.9155 11.5008C14.8934 11.4446 14.8497 11.3994 14.794 11.3751C14.7383 11.3508 14.6752 11.3495 14.6185 11.3714C14.5619 11.3934 14.5163 11.4367 14.4918 11.492C14.2029 12.07 13.7751 12.5686 13.2462 12.9439C12.7172 13.3192 12.1033 13.5596 11.4585 13.644C10.8138 13.7283 10.1581 13.654 9.54913 13.4276C8.94018 13.2012 8.39672 12.8296 7.96666 12.3457C7.71783 12.0685 7.51081 11.7569 7.35205 11.4208C7.30083 11.3294 7.25985 11.2277 7.21888 11.1363C7.1779 11.0448 7.14717 10.933 7.11644 10.8314C7.96666 10.4452 8.92956 10.0285 10.0359 9.61181C11.1422 9.19513 12.0948 8.85975 12.9655 8.59551C13.5597 8.41257 14.1026 8.26013 14.584 8.13817L14.6967 8.11785C14.732 8.10813 14.7697 8.1122 14.8021 8.12921C14.8345 8.14622 14.8591 8.17488 14.8708 8.20931C14.8891 8.2483 14.9029 8.28921 14.9118 8.33127C15.012 8.60179 15.0874 8.88071 15.1372 9.16464C15.1419 9.19184 15.1531 9.21753 15.1698 9.23955C15.1866 9.26158 15.2084 9.27931 15.2335 9.29125C15.2585 9.30319 15.2861 9.309 15.3139 9.30819C15.3417 9.30738 15.3689 9.29997 15.3933 9.28659C15.7928 9.07317 16.1615 8.85975 16.4893 8.66665C17.7186 7.91458 18.3946 7.27431 18.2512 6.91861C18.1078 6.5629 17.1859 6.53241 15.7723 6.78649C15.3216 6.86779 14.8196 6.97959 14.287 7.12187L14.0104 7.19301C13.5494 7.31497 13.0782 7.44709 12.5865 7.59953C11.6646 7.8841 10.671 8.22964 9.64661 8.61583C8.62225 9.00203 7.79252 9.35773 6.95255 9.73377C6.94844 9.0888 7.10345 8.45264 7.40405 7.88075C7.70465 7.30887 8.14171 6.81864 8.67712 6.45281C9.21253 6.08699 9.83002 5.85669 10.4757 5.78199C11.1214 5.70729 11.7758 5.79047 12.3817 6.02426C12.4258 6.03924 12.4733 6.04146 12.5186 6.03066C12.564 6.01987 12.6053 5.9965 12.6377 5.96328C12.6624 5.93803 12.6807 5.90736 12.6912 5.87377C12.7016 5.84018 12.704 5.80461 12.698 5.76996C12.692 5.73531 12.6779 5.70254 12.6567 5.67433C12.6356 5.64612 12.608 5.62325 12.5763 5.60758C11.9402 5.26183 11.2357 5.05813 10.5121 5.01073C9.78837 4.96333 9.06299 5.07338 8.38665 5.33318Z" fill="#FFDBCE"/>
</svg>
