<svg width="16" height="16" viewBox="0 0 16 16" fill="none" xmlns="http://www.w3.org/2000/svg">
<path fill-rule="evenodd" clip-rule="evenodd" d="M2.00003 6.125C2.00003 3.84683 3.84685 2 6.12503 2H6.50003C6.91424 2 7.25003 1.66421 7.25003 1.25C7.25003 0.835786 6.91424 0.5 6.50003 0.5H6.12503C3.01842 0.5 0.500025 3.0184 0.500025 6.125V8L0.500012 8.14155C0.499806 9.63393 0.499681 10.5441 0.715908 11.3108C1.25895 13.2363 2.76376 14.7411 4.68924 15.2841C5.45592 15.5003 6.36609 15.5002 7.85845 15.5H7.85847L8.00003 15.5H9.87503C12.9816 15.5 15.5 12.9816 15.5 9.875V9.5C15.5 9.08579 15.1642 8.75 14.75 8.75C14.3358 8.75 14 9.08579 14 9.5V9.875C14 12.1532 12.1532 14 9.87503 14H8.00003C6.32151 14 5.63701 13.9929 5.0964 13.8404C3.67322 13.4391 2.56097 12.3268 2.15959 10.9036C2.00712 10.363 2.00003 9.67851 2.00003 8V6.125ZM10.25 0.5C9.83581 0.5 9.50003 0.835786 9.50003 1.25C9.50003 1.66421 9.83581 2 10.25 2H12.9394L7.4697 7.46967C7.1768 7.76256 7.1768 8.23744 7.4697 8.53033C7.76259 8.82322 8.23746 8.82322 8.53036 8.53033L14 3.06066V5.75C14 6.16421 14.3358 6.5 14.75 6.5C15.1642 6.5 15.5 6.16421 15.5 5.75V1.25C15.5 0.835786 15.1642 0.5 14.75 0.5H10.25Z" fill="#FF8C5C"/>
</svg>
