<svg width="20" height="20" viewBox="0 0 20 20" fill="none" xmlns="http://www.w3.org/2000/svg">
<g clip-path="url(#clip0_145_446)">
<circle cx="10" cy="10" r="10" fill="#4E4E4E"/>
<path d="M9.27273 16V7.27273H10.6136V16H9.27273ZM9.95455 5.81818C9.69318 5.81818 9.4678 5.72917 9.27841 5.55114C9.0928 5.37311 9 5.15909 9 4.90909C9 4.65909 9.0928 4.44508 9.27841 4.26705C9.4678 4.08902 9.69318 4 9.95455 4C10.2159 4 10.4394 4.08902 10.625 4.26705C10.8144 4.44508 10.9091 4.65909 10.9091 4.90909C10.9091 5.15909 10.8144 5.37311 10.625 5.55114C10.4394 5.72917 10.2159 5.81818 9.95455 5.81818Z" fill="white"/>
</g>
<defs>
<clipPath id="clip0_145_446">
<rect width="20" height="20" fill="white"/>
</clipPath>
</defs>
</svg>
